<svg xmlns="http://www.w3.org/2000/svg" viewBox="0 0 512 512">
  <defs>
    <linearGradient id="bg" x1="0" y1="0" x2="1" y2="1">
      <stop offset="0" stop-color="#2E7D5B"/>
      <stop offset="1" stop-color="#1E5A40"/>
    </linearGradient>
    <linearGradient id="gold" x1="0" y1="0" x2="0" y2="1">
      <stop offset="0" stop-color="#F5E6C8"/>
      <stop offset="1" stop-color="#C9A56A"/>
    </linearGradient>
  </defs>
  <rect width="512" height="512" rx="96" fill="url(#bg)"/>
  <g transform="translate(106 110)">
    <!-- Milk bottle silhouette -->
    <path d="M120 0h60v40c30 16 50 48 50 88v140c0 18-14 32-32 32H102c-18 0-32-14-32-32V128c0-40 20-72 50-88V0z" fill="url(#gold)"/>
    <!-- Milk inside (white) -->
    <path d="M86 200c4 0 80 24 168 0v68c0 9-7 16-16 16H102c-9 0-16-7-16-16v-68z" fill="#FFFFFF" opacity="0.85"/>
    <!-- Drop -->
    <circle cx="150" cy="240" r="6" fill="#FFFFFF"/>
    <circle cx="180" cy="248" r="5" fill="#FFFFFF" opacity="0.8"/>
    <circle cx="210" cy="240" r="6" fill="#FFFFFF"/>
  </g>
  <text x="256" y="448" text-anchor="middle" font-family="-apple-system, BlinkMacSystemFont, Poppins, sans-serif" font-weight="800" font-size="44" fill="#F5E6C8" letter-spacing="3">LAXMI</text>
</svg>
